<svg width="132" height="98" viewBox="0 0 132 98" fill="none" xmlns="http://www.w3.org/2000/svg">
<g filter="url(#filter0_dd_1104_22576)">
<g clip-path="url(#clip0_1104_22576)">
<rect x="6.85547" y="2.28516" width="117.6" height="84" rx="9.14286" fill="#F93939"/>
<path d="M113.255 2.28516H18.0555C11.8699 2.28516 6.85547 7.29957 6.85547 13.4852V75.0852C6.85547 81.2707 11.8699 86.2852 18.0555 86.2852H113.255C119.441 86.2852 124.455 81.2707 124.455 75.0852V13.4852C124.455 7.29957 119.441 2.28516 113.255 2.28516Z" fill="#F93939"/>
<path fill-rule="evenodd" clip-rule="evenodd" d="M37.6449 42.7731L29.4129 47.1019L30.9809 37.9347L24.3281 31.4387L33.5289 30.1115L37.6449 21.7675L41.7553 30.1115L50.9561 31.4387L44.2921 37.9347L45.8713 47.0963L37.6449 42.7731ZM57.2561 19.0851H62.8561V24.6851H57.2561V19.0851ZM62.8561 30.2851H68.4561V35.8851H62.8561V30.2851ZM62.8561 41.4851H68.4561V47.0851H62.8561V41.4851ZM57.2561 52.6851H62.8561V58.2851H57.2561V52.6851Z" fill="#FFDA2C"/>
</g>
</g>
<defs>
<filter id="filter0_dd_1104_22576" x="-0.00167465" y="-0.000558376" width="131.316" height="97.7143" filterUnits="userSpaceOnUse" color-interpolation-filters="sRGB">
<feFlood flood-opacity="0" result="BackgroundImageFix"/>
<feColorMatrix in="SourceAlpha" type="matrix" values="0 0 0 0 0 0 0 0 0 0 0 0 0 0 0 0 0 0 127 0" result="hardAlpha"/>
<feOffset dy="4.57143"/>
<feGaussianBlur stdDeviation="3.42857"/>
<feComposite in2="hardAlpha" operator="out"/>
<feColorMatrix type="matrix" values="0 0 0 0 0.258824 0 0 0 0 0.278431 0 0 0 0 0.298039 0 0 0 0.08 0"/>
<feBlend mode="normal" in2="BackgroundImageFix" result="effect1_dropShadow_1104_22576"/>
<feColorMatrix in="SourceAlpha" type="matrix" values="0 0 0 0 0 0 0 0 0 0 0 0 0 0 0 0 0 0 127 0" result="hardAlpha"/>
<feOffset/>
<feGaussianBlur stdDeviation="0.285714"/>
<feComposite in2="hardAlpha" operator="out"/>
<feColorMatrix type="matrix" values="0 0 0 0 0.258824 0 0 0 0 0.278431 0 0 0 0 0.298039 0 0 0 0.32 0"/>
<feBlend mode="normal" in2="effect1_dropShadow_1104_22576" result="effect2_dropShadow_1104_22576"/>
<feBlend mode="normal" in="SourceGraphic" in2="effect2_dropShadow_1104_22576" result="shape"/>
</filter>
<clipPath id="clip0_1104_22576">
<rect x="6.85547" y="2.28516" width="117.6" height="84" rx="9.14286" fill="white"/>
</clipPath>
</defs>
</svg>
