<svg width="132" height="98" viewBox="0 0 132 98" fill="none" xmlns="http://www.w3.org/2000/svg">
<g filter="url(#filter0_dd_1104_22880)">
<g clip-path="url(#clip0_1104_22880)">
<rect x="6.85547" y="2.28516" width="117.6" height="84" rx="9.14286" fill="white"/>
<path fill-rule="evenodd" clip-rule="evenodd" d="M6.85547 58.2852H124.455V86.2852H6.85547V58.2852Z" fill="#249F58"/>
<path fill-rule="evenodd" clip-rule="evenodd" d="M65.6551 58.2852C73.3831 58.2852 79.6551 52.0132 79.6551 44.2852C79.6551 36.5572 73.3831 30.2852 65.6551 30.2852C57.9271 30.2852 51.6551 36.5572 51.6551 44.2852C51.6551 52.0132 57.9271 58.2852 65.6551 58.2852ZM65.6551 52.6852C70.2919 52.6852 74.0551 48.922 74.0551 44.2852C74.0551 39.6484 70.2919 35.8852 65.6551 35.8852C61.0183 35.8852 57.2551 39.6484 57.2551 44.2852C57.2551 48.922 61.0183 52.6852 65.6551 52.6852Z" fill="#1A47B8"/>
<path d="M65.6549 47.0852C67.2013 47.0852 68.4549 45.8316 68.4549 44.2852C68.4549 42.7388 67.2013 41.4852 65.6549 41.4852C64.1085 41.4852 62.8549 42.7388 62.8549 44.2852C62.8549 45.8316 64.1085 47.0852 65.6549 47.0852Z" fill="#1A47B8"/>
<path fill-rule="evenodd" clip-rule="evenodd" d="M6.85547 2.28516H124.455V30.2852H6.85547V2.28516Z" fill="#FF6C2D"/>
</g>
</g>
<defs>
<filter id="filter0_dd_1104_22880" x="-0.00167465" y="-0.000558376" width="131.316" height="97.7143" filterUnits="userSpaceOnUse" color-interpolation-filters="sRGB">
<feFlood flood-opacity="0" result="BackgroundImageFix"/>
<feColorMatrix in="SourceAlpha" type="matrix" values="0 0 0 0 0 0 0 0 0 0 0 0 0 0 0 0 0 0 127 0" result="hardAlpha"/>
<feOffset dy="4.57143"/>
<feGaussianBlur stdDeviation="3.42857"/>
<feComposite in2="hardAlpha" operator="out"/>
<feColorMatrix type="matrix" values="0 0 0 0 0.258824 0 0 0 0 0.278431 0 0 0 0 0.298039 0 0 0 0.08 0"/>
<feBlend mode="normal" in2="BackgroundImageFix" result="effect1_dropShadow_1104_22880"/>
<feColorMatrix in="SourceAlpha" type="matrix" values="0 0 0 0 0 0 0 0 0 0 0 0 0 0 0 0 0 0 127 0" result="hardAlpha"/>
<feOffset/>
<feGaussianBlur stdDeviation="0.285714"/>
<feComposite in2="hardAlpha" operator="out"/>
<feColorMatrix type="matrix" values="0 0 0 0 0.258824 0 0 0 0 0.278431 0 0 0 0 0.298039 0 0 0 0.32 0"/>
<feBlend mode="normal" in2="effect1_dropShadow_1104_22880" result="effect2_dropShadow_1104_22880"/>
<feBlend mode="normal" in="SourceGraphic" in2="effect2_dropShadow_1104_22880" result="shape"/>
</filter>
<clipPath id="clip0_1104_22880">
<rect x="6.85547" y="2.28516" width="117.6" height="84" rx="9.14286" fill="white"/>
</clipPath>
</defs>
</svg>
