<svg width="132" height="98" viewBox="0 0 132 98" fill="none" xmlns="http://www.w3.org/2000/svg">
<g filter="url(#filter0_dd_1104_21587)">
<g clip-path="url(#clip0_1104_21587)">
<rect x="6.85547" y="2.28516" width="117.6" height="84" rx="9.14286" fill="white"/>
<path fill-rule="evenodd" clip-rule="evenodd" d="M6.85547 63.8844H124.455V75.0844H6.85547V63.8844ZM6.85547 13.4844H124.455V24.6844H6.85547V13.4844ZM62.1555 52.6844H51.6555L56.9083 44.2844L51.6555 35.8844H62.1555L65.6555 30.2844L69.1555 35.8844H79.6555L74.4027 44.2844L79.6555 52.6844H69.1555L65.6555 58.2844L62.1555 52.6844ZM60.0555 44.2844L65.6555 38.6844L71.2555 44.2844L65.6555 49.8844L60.0555 44.2844Z" fill="#1A47B8"/>
</g>
</g>
<defs>
<filter id="filter0_dd_1104_21587" x="-0.00167465" y="-0.000558376" width="131.316" height="97.7143" filterUnits="userSpaceOnUse" color-interpolation-filters="sRGB">
<feFlood flood-opacity="0" result="BackgroundImageFix"/>
<feColorMatrix in="SourceAlpha" type="matrix" values="0 0 0 0 0 0 0 0 0 0 0 0 0 0 0 0 0 0 127 0" result="hardAlpha"/>
<feOffset dy="4.57143"/>
<feGaussianBlur stdDeviation="3.42857"/>
<feComposite in2="hardAlpha" operator="out"/>
<feColorMatrix type="matrix" values="0 0 0 0 0.258824 0 0 0 0 0.278431 0 0 0 0 0.298039 0 0 0 0.08 0"/>
<feBlend mode="normal" in2="BackgroundImageFix" result="effect1_dropShadow_1104_21587"/>
<feColorMatrix in="SourceAlpha" type="matrix" values="0 0 0 0 0 0 0 0 0 0 0 0 0 0 0 0 0 0 127 0" result="hardAlpha"/>
<feOffset/>
<feGaussianBlur stdDeviation="0.285714"/>
<feComposite in2="hardAlpha" operator="out"/>
<feColorMatrix type="matrix" values="0 0 0 0 0.258824 0 0 0 0 0.278431 0 0 0 0 0.298039 0 0 0 0.32 0"/>
<feBlend mode="normal" in2="effect1_dropShadow_1104_21587" result="effect2_dropShadow_1104_21587"/>
<feBlend mode="normal" in="SourceGraphic" in2="effect2_dropShadow_1104_21587" result="shape"/>
</filter>
<clipPath id="clip0_1104_21587">
<rect x="6.85547" y="2.28516" width="117.6" height="84" rx="9.14286" fill="white"/>
</clipPath>
</defs>
</svg>
